<?xml version="1.0" encoding="UTF-8"?>
<svg xmlns="http://www.w3.org/2000/svg" xmlns:xlink="http://www.w3.org/1999/xlink" width="48px" height="48px" viewBox="0 0 48 48" version="1.1">
<g id="surface1">
<path style=" stroke:none;fill-rule:nonzero;fill:rgb(4.705882%,3.137255%,14.117647%);fill-opacity:1;" d="M 4.75 5.277344 L 43.25 5.277344 L 43.25 42.722656 L 4.75 42.722656 Z M 4.75 5.277344 "/>
<path style=" stroke:none;fill-rule:nonzero;fill:rgb(19.215686%,77.254902%,94.117647%);fill-opacity:1;" d="M 4.75 5.277344 L 43.25 5.277344 L 43.25 42.722656 L 4.75 42.722656 Z M 3 44.476562 L 45 44.476562 L 45 3.523438 L 3 3.523438 Z M 31.316406 20.324219 C 29.933594 20.324219 29.460938 21.027344 29.460938 21.601562 C 29.460938 22.234375 29.773438 22.671875 31.628906 23.632812 C 34.378906 24.964844 35.230469 26.238281 35.230469 28.113281 C 35.230469 30.914062 33.097656 32.417969 30.207031 32.417969 C 28.96875 32.464844 27.738281 32.207031 26.621094 31.667969 C 26.496094 31.617188 26.480469 31.527344 26.480469 31.386719 L 26.480469 28.8125 C 26.480469 28.636719 26.566406 28.585938 26.691406 28.671875 C 27.738281 29.347656 28.960938 29.707031 30.207031 29.703125 C 31.589844 29.703125 32.167969 29.128906 32.167969 28.339844 C 32.167969 27.710938 31.765625 27.148438 30 26.238281 C 27.511719 25.050781 26.480469 23.839844 26.480469 21.828125 C 26.480469 19.570312 28.246094 17.699219 31.3125 17.699219 C 32.378906 17.652344 33.441406 17.820312 34.441406 18.191406 C 34.558594 18.265625 34.628906 18.398438 34.617188 18.539062 L 34.617188 20.941406 C 34.617188 21.078125 34.53125 21.167969 34.355469 21.117188 C 33.429688 20.582031 32.378906 20.3125 31.3125 20.328125 Z M 16.265625 22.40625 C 16.667969 22.441406 16.980469 22.441406 17.683594 22.441406 C 19.730469 22.441406 21.652344 21.722656 21.652344 18.941406 C 21.652344 16.71875 20.269531 15.601562 17.945312 15.601562 C 17.242188 15.601562 16.578125 15.632812 16.265625 15.652344 Z M 13.148438 13.105469 C 13.148438 12.984375 13.394531 12.898438 13.535156 12.898438 C 14.65625 12.84375 16.316406 12.808594 18.050781 12.808594 C 22.898438 12.808594 24.789062 15.46875 24.789062 18.867188 C 24.789062 23.308594 21.566406 25.21875 17.613281 25.21875 C 16.949219 25.21875 16.71875 25.183594 16.246094 25.183594 L 16.246094 31.902344 C 16.246094 32.042969 16.195312 32.113281 16.039062 32.113281 L 13.359375 32.113281 C 13.222656 32.113281 13.152344 32.0625 13.152344 31.902344 L 13.152344 13.113281 Z M 13.148438 13.105469 "/>
</g>
</svg>
